<svg width="182" height="196" viewBox="0 0 182 196" fill="none" xmlns="http://www.w3.org/2000/svg">
<g opacity="0.5">
<path d="M163.89 179.933L170.742 186.758L163.89 193.582C163.338 194.132 163.338 195.038 163.89 195.555C164.442 196.105 165.351 196.105 165.904 195.555L172.755 188.731L179.607 195.555C180.159 196.105 181.068 196.105 181.588 195.555C182.14 195.005 182.14 194.1 181.588 193.582L174.736 186.758L181.588 179.933C182.14 179.383 182.14 178.478 181.588 177.928C181.036 177.378 180.127 177.378 179.607 177.928L172.755 184.752L165.904 177.928C165.351 177.378 164.442 177.378 163.89 177.928C163.338 178.51 163.338 179.383 163.89 179.933Z" fill="#373F4C"/>
<path d="M109.42 179.966L116.272 186.79L109.42 193.615C108.868 194.165 108.868 195.07 109.42 195.588C109.972 196.138 110.882 196.138 111.434 195.588L118.285 188.763L125.137 195.588C125.689 196.138 126.566 196.138 127.118 195.588C127.67 195.038 127.67 194.132 127.118 193.615L120.266 186.79L127.118 179.966C127.67 179.416 127.67 178.51 127.118 177.96C126.566 177.411 125.657 177.411 125.137 177.96L118.285 184.785L111.434 177.96C110.882 177.411 109.972 177.411 109.42 177.96C108.868 178.543 108.868 179.416 109.42 179.966Z" fill="#373F4C"/>
<path d="M54.9181 179.933L61.7699 186.758L54.9181 193.582C54.3661 194.132 54.3661 195.038 54.9181 195.555C55.4702 196.105 56.3469 196.105 56.9314 195.555L63.7831 188.731L70.6349 195.555C71.1869 196.105 72.0961 196.105 72.6482 195.555C73.2002 195.005 73.2002 194.1 72.6482 193.582L65.7964 186.758L72.6482 179.933C73.2002 179.383 73.2002 178.478 72.6482 177.928C72.0961 177.378 71.1869 177.378 70.6349 177.928L63.7831 184.752L56.9314 177.928C56.3794 177.378 55.4702 177.378 54.9181 177.928C54.3661 178.51 54.3661 179.383 54.9181 179.933Z" fill="#373F4C"/>
<path d="M0.415858 179.933L7.26754 186.758L0.415858 193.582C-0.136178 194.132 -0.136178 195.038 0.415858 195.555C0.967893 196.105 1.87711 196.105 2.42915 195.555L9.28088 188.731L16.1326 195.555C16.6847 196.105 17.5939 196.105 18.1459 195.555C18.6979 195.005 18.6979 194.1 18.1459 193.582L11.2942 186.758L18.1459 179.933C18.6979 179.383 18.6979 178.478 18.1459 177.928C17.5939 177.378 16.7171 177.378 16.1651 177.928L9.31334 184.752L2.4616 177.928C1.90957 177.378 1.00035 177.378 0.448312 177.928C-0.136196 178.51 -0.136178 179.383 0.415858 179.933Z" fill="#373F4C"/>
<path d="M163.89 135.546L170.742 142.371L163.89 149.195C163.338 149.745 163.338 150.618 163.89 151.168C164.442 151.718 165.351 151.718 165.904 151.168L172.755 144.344L179.607 151.168C180.159 151.718 181.068 151.718 181.588 151.168C182.14 150.618 182.14 149.713 181.588 149.195L174.736 142.371L181.588 135.546C182.14 134.997 182.14 134.091 181.588 133.573C181.036 133.024 180.127 133.024 179.607 133.573L172.755 140.398L165.904 133.573C165.351 133.024 164.442 133.024 163.89 133.573C163.338 134.091 163.338 134.997 163.89 135.546Z" fill="#373F4C"/>
<path d="M109.42 135.579L116.272 142.403L109.42 149.228C108.868 149.778 108.868 150.651 109.42 151.201C109.972 151.751 110.882 151.751 111.434 151.201L118.285 144.376L125.137 151.201C125.689 151.751 126.566 151.751 127.118 151.201C127.67 150.651 127.67 149.745 127.118 149.228L120.266 142.403L127.118 135.579C127.67 135.029 127.67 134.123 127.118 133.606C126.566 133.056 125.657 133.056 125.137 133.606L118.285 140.43L111.434 133.606C110.882 133.056 109.972 133.056 109.42 133.606C108.868 134.123 108.868 135.029 109.42 135.579Z" fill="#373F4C"/>
<path d="M54.9181 135.546L61.7699 142.371L54.9181 149.195C54.3661 149.745 54.3661 150.618 54.9181 151.168C55.4702 151.718 56.3469 151.718 56.9314 151.168L63.7831 144.344L70.6349 151.168C71.1869 151.718 72.0961 151.718 72.6482 151.168C73.2002 150.618 73.2002 149.713 72.6482 149.195L65.7964 142.371L72.6482 135.546C73.2002 134.997 73.2002 134.091 72.6482 133.573C72.0961 133.024 71.1869 133.024 70.6349 133.573L63.7831 140.398L56.9314 133.573C56.3794 133.024 55.4702 133.024 54.9181 133.573C54.3661 134.091 54.3661 134.997 54.9181 135.546Z" fill="#373F4C"/>
<path d="M0.415858 135.546L7.26754 142.371L0.415858 149.195C-0.136178 149.745 -0.136178 150.618 0.415858 151.168C0.967893 151.718 1.87711 151.718 2.42915 151.168L9.28088 144.344L16.1326 151.168C16.6847 151.718 17.5939 151.718 18.1459 151.168C18.6979 150.618 18.6979 149.713 18.1459 149.195L11.2942 142.371L18.1459 135.546C18.6979 134.997 18.6979 134.091 18.1459 133.573C17.5939 133.024 16.7171 133.024 16.1651 133.573L9.31334 140.398L2.4616 133.573C1.90957 133.024 1.00035 133.024 0.448312 133.573C-0.136196 134.091 -0.136178 134.997 0.415858 135.546Z" fill="#373F4C"/>
<path d="M163.89 91.1594L170.742 97.9838L163.89 104.808C163.338 105.358 163.338 106.264 163.89 106.814C164.442 107.363 165.351 107.363 165.904 106.814L172.755 99.9891L179.607 106.814C180.159 107.363 181.068 107.363 181.588 106.814C182.14 106.264 182.14 105.358 181.588 104.808L174.736 97.9838L181.588 91.1594C182.14 90.6095 182.14 89.7363 181.588 89.1864C181.036 88.6366 180.127 88.6366 179.607 89.1864L172.755 96.0109L165.904 89.1864C165.351 88.6366 164.442 88.6366 163.89 89.1864C163.338 89.7039 163.338 90.6095 163.89 91.1594Z" fill="#373F4C"/>
<path d="M109.42 91.1917L116.272 98.0162L109.42 104.841C108.868 105.39 108.868 106.296 109.42 106.846C109.972 107.396 110.882 107.396 111.434 106.846L118.285 100.021L125.137 106.846C125.689 107.396 126.566 107.396 127.118 106.846C127.67 106.296 127.67 105.39 127.118 104.841L120.266 98.0162L127.118 91.1917C127.67 90.6419 127.67 89.7686 127.118 89.2188C126.566 88.6689 125.657 88.6689 125.137 89.2188L118.285 96.0432L111.434 89.2188C110.882 88.6689 109.972 88.6689 109.42 89.2188C108.868 89.7363 108.868 90.6419 109.42 91.1917Z" fill="#373F4C"/>
<path d="M54.9181 91.1594L61.7699 97.9838L54.9181 104.808C54.3661 105.358 54.3661 106.264 54.9181 106.814C55.4702 107.363 56.3469 107.363 56.9314 106.814L63.7831 99.9891L70.6349 106.814C71.1869 107.363 72.0961 107.363 72.6482 106.814C73.2002 106.264 73.2002 105.358 72.6482 104.808L65.7964 97.9838L72.6482 91.1594C73.2002 90.6095 73.2002 89.7363 72.6482 89.1864C72.0961 88.6366 71.1869 88.6366 70.6349 89.1864L63.7831 96.0109L56.9314 89.1864C56.3794 88.6366 55.4702 88.6366 54.9181 89.1864C54.3661 89.7039 54.3661 90.6095 54.9181 91.1594Z" fill="#373F4C"/>
<path d="M0.415858 91.1594L7.26754 97.9838L0.415858 104.808C-0.136178 105.358 -0.136178 106.264 0.415858 106.814C0.967893 107.363 1.87711 107.363 2.42915 106.814L9.28088 99.9891L16.1326 106.814C16.6847 107.363 17.5939 107.363 18.1459 106.814C18.6979 106.264 18.6979 105.358 18.1459 104.808L11.2942 97.9838L18.1459 91.1594C18.6979 90.6095 18.6979 89.7363 18.1459 89.1864C17.5939 88.6366 16.7171 88.6366 16.1651 89.1864L9.31334 96.0109L2.4616 89.1864C1.90957 88.6366 1.00035 88.6366 0.448312 89.1864C-0.136196 89.7039 -0.136178 90.6095 0.415858 91.1594Z" fill="#373F4C"/>
<path d="M163.89 46.8046L170.742 53.6291L163.89 60.4536C163.338 61.0034 163.338 61.8767 163.89 62.4266C164.442 62.9764 165.351 62.9764 165.904 62.4266L172.755 55.6021L179.607 62.4266C180.159 62.9764 181.068 62.9764 181.588 62.4266C182.14 61.8767 182.14 60.9711 181.588 60.4536L174.736 53.6291L181.588 46.8046C182.14 46.2548 182.14 45.3492 181.588 44.7993C181.036 44.2495 180.127 44.2495 179.607 44.7993L172.755 51.6238L165.904 44.7993C165.351 44.2495 164.442 44.2495 163.89 44.7993C163.338 45.3492 163.338 46.2548 163.89 46.8046Z" fill="#373F4C"/>
<path d="M109.42 46.8371L116.272 53.6616L109.42 60.4861C108.868 61.0359 108.868 61.9092 109.42 62.459C109.972 63.0089 110.882 63.0089 111.434 62.459L118.285 55.6346L125.137 62.459C125.689 63.0089 126.566 63.0089 127.118 62.459C127.67 61.9092 127.67 61.0036 127.118 60.4861L120.266 53.6616L127.118 46.8371C127.67 46.2873 127.67 45.3817 127.118 44.8318C126.566 44.282 125.657 44.282 125.137 44.8318L118.285 51.6563L111.434 44.8318C110.882 44.282 109.972 44.282 109.42 44.8318C108.868 45.3817 108.868 46.2873 109.42 46.8371Z" fill="#373F4C"/>
<path d="M54.9181 46.8046L61.7699 53.6291L54.9181 60.4536C54.3661 61.0034 54.3661 61.8767 54.9181 62.4266C55.4702 62.9764 56.3469 62.9764 56.9314 62.4266L63.7831 55.6021L70.6349 62.4266C71.1869 62.9764 72.0961 62.9764 72.6482 62.4266C73.2002 61.8767 73.2002 60.9711 72.6482 60.4536L65.7964 53.6291L72.6482 46.8046C73.2002 46.2548 73.2002 45.3492 72.6482 44.7993C72.0961 44.2495 71.1869 44.2495 70.6349 44.7993L63.7831 51.6238L56.9314 44.7993C56.3794 44.2495 55.4702 44.2495 54.9181 44.7993C54.3661 45.3492 54.3661 46.2548 54.9181 46.8046Z" fill="#373F4C"/>
<path d="M0.415858 46.8046L7.26754 53.6291L0.415858 60.4536C-0.136178 61.0034 -0.136178 61.8767 0.415858 62.4266C0.967893 62.9764 1.87711 62.9764 2.42915 62.4266L9.28088 55.6021L16.1326 62.4266C16.6847 62.9764 17.5939 62.9764 18.1459 62.4266C18.6979 61.8767 18.6979 60.9711 18.1459 60.4536L11.2942 53.6291L18.1459 46.8046C18.6979 46.2548 18.6979 45.3492 18.1459 44.7993C17.5939 44.2495 16.7171 44.2495 16.1651 44.7993L9.31334 51.6238L2.4616 44.7993C1.90957 44.2495 1.00035 44.2495 0.448312 44.7993C-0.136196 45.3492 -0.136178 46.2548 0.415858 46.8046Z" fill="#373F4C"/>
<path d="M163.89 2.38533L170.742 9.20981L163.89 16.0343C163.338 16.5841 163.338 17.4897 163.89 18.0396C164.442 18.5894 165.351 18.5894 165.904 18.0396L172.755 11.2151L179.607 18.0396C180.159 18.5894 181.068 18.5894 181.588 18.0396C182.14 17.4897 182.14 16.5841 181.588 16.0343L174.736 9.20981L181.588 2.38533C182.14 1.83549 182.14 0.962219 181.588 0.412379C181.036 -0.13746 180.127 -0.13746 179.607 0.412379L172.755 7.23686L165.904 0.412379C165.351 -0.13746 164.442 -0.13746 163.89 0.412379C163.338 0.962219 163.338 1.83549 163.89 2.38533Z" fill="#373F4C"/>
<path d="M109.42 2.38547L116.272 9.20994L109.42 16.0344C108.868 16.5843 108.868 17.4899 109.42 18.0397C109.972 18.5895 110.882 18.5895 111.434 18.0397L118.285 11.2152L125.137 18.0721C125.689 18.6219 126.566 18.6219 127.118 18.0721C127.67 17.5222 127.67 16.6166 127.118 16.0667L120.266 9.24227L127.118 2.4178C127.67 1.86797 127.67 0.994689 127.118 0.44485C126.566 -0.104989 125.657 -0.104989 125.137 0.44485L118.285 7.26933L111.434 0.44485C110.882 -0.104989 109.972 -0.104989 109.42 0.44485C108.868 0.962346 108.868 1.83563 109.42 2.38547Z" fill="#373F4C"/>
<path d="M54.9181 2.38533L61.7699 9.20981L54.9181 16.0343C54.3661 16.5841 54.3661 17.4897 54.9181 18.0396C55.4702 18.5894 56.3469 18.5894 56.9314 18.0396L63.7831 11.2151L70.6349 18.0396C71.1869 18.5894 72.0961 18.5894 72.6482 18.0396C73.2002 17.4897 73.2002 16.5841 72.6482 16.0343L65.7964 9.20981L72.6482 2.38533C73.2002 1.83549 73.2002 0.962219 72.6482 0.412379C72.0961 -0.13746 71.1869 -0.13746 70.6349 0.412379L63.7831 7.23686L56.9314 0.412379C56.3794 -0.13746 55.4702 -0.13746 54.9181 0.412379C54.3661 0.962219 54.3661 1.83549 54.9181 2.38533Z" fill="#373F4C"/>
<path d="M0.415858 2.38533L7.26754 9.20981L0.415858 16.0343C-0.136178 16.5841 -0.136178 17.4897 0.415858 18.0396C0.967893 18.5894 1.87711 18.5894 2.42915 18.0396L9.28088 11.2151L16.1326 18.0396C16.6847 18.5894 17.5939 18.5894 18.1459 18.0396C18.6979 17.4897 18.6979 16.5841 18.1459 16.0343L11.2942 9.20981L18.1459 2.38533C18.6979 1.83549 18.6979 0.962219 18.1459 0.412379C17.5939 -0.13746 16.7171 -0.13746 16.1651 0.412379L9.31334 7.23686L2.4616 0.412379C1.90957 -0.13746 1.00035 -0.13746 0.448312 0.412379C-0.136196 0.962219 -0.136178 1.83549 0.415858 2.38533Z" fill="#373F4C"/>
</g>
</svg>
