<svg width="106" height="77" viewBox="0 0 106 77" fill="none" xmlns="http://www.w3.org/2000/svg">
<g opacity="0.18">
<path d="M82.8971 64.7599L73.6348 2C72.8833 2.01879 72.1131 2.05637 71.3616 2.11274L80.6801 65.3049C81.4316 65.1546 82.1644 64.9854 82.8971 64.7599Z" fill="#373F4C"/>
<path d="M93.5686 59.3481L85.4336 4.12317C84.6445 3.82252 83.8366 3.54066 83.0288 3.29639L91.5207 60.8326C92.2158 60.3628 92.8922 59.8555 93.5686 59.3481Z" fill="#373F4C"/>
<path d="M88.3266 62.6364L79.4591 2.46955C78.6888 2.33802 77.8997 2.22531 77.1295 2.15015L86.2037 63.6135C86.8988 63.3317 87.6127 62.9934 88.3266 62.6364Z" fill="#373F4C"/>
<path d="M98.6035 54.5002L91.6522 7.31748C90.8255 6.77255 89.9988 6.26518 89.1346 5.81421L96.6309 56.661C97.3072 55.9658 97.9648 55.2518 98.6035 54.5002Z" fill="#373F4C"/>
<path d="M103.224 47.0404L98.2266 13.105C97.3811 12.1467 96.4981 11.2071 95.54 10.324L101.458 50.4603C102.116 49.3517 102.717 48.2054 103.224 47.0404Z" fill="#373F4C"/>
<path d="M105.554 39.3742C106.681 32.7224 105.667 25.8451 102.661 19.7946L105.554 39.3742Z" fill="#373F4C"/>
<path d="M53.2876 58.4086L47.1253 16.6376C46.449 17.671 45.8478 18.7421 45.303 19.8319L50.6197 55.8719C51.4464 56.7739 52.3294 57.6194 53.2876 58.4086Z" fill="#373F4C"/>
<path d="M59.638 62.6176L51.9915 10.7561C51.3152 11.4138 50.6388 12.0902 50.0001 12.8231L57.1392 61.2083C57.9659 61.7345 58.7926 62.2042 59.638 62.6176Z" fill="#373F4C"/>
<path d="M46.3181 50.1034L42.8613 26.5966C41.9783 30.3546 41.7716 34.2067 42.2601 37.9835L42.4667 39.3741C43.0867 43.1321 44.383 46.7775 46.3181 50.1034Z" fill="#373F4C"/>
<path d="M71.6059 65.9436L62.4939 4.16077C61.7612 4.44262 61.0474 4.74331 60.3335 5.08154L69.2763 65.6993C70.0465 65.7933 70.8168 65.8873 71.6059 65.9436Z" fill="#373F4C"/>
<path d="M77.3173 65.8498L67.98 2.58252C67.2473 2.73284 66.4959 2.90199 65.7632 3.0899L75.044 66.0001C75.8143 65.9813 76.5658 65.925 77.3173 65.8498Z" fill="#373F4C"/>
<path d="M65.7254 64.9478L57.1584 6.8103C56.4445 7.24248 55.7494 7.71222 55.073 8.20077L63.3394 64.215C64.1097 64.4969 64.9176 64.7223 65.7254 64.9478Z" fill="#373F4C"/>
</g>
<path opacity="0.2" d="M1.1322 77L0.0018158 0L68.0018 37.5267L1.1322 77Z" fill="#373F4C"/>
</svg>
